<svg id="Capa_1" data-name="Capa 1" xmlns="http://www.w3.org/2000/svg" viewBox="0 0 434.05 99.36"><defs><style>.cls-1{fill:#1b292b;}.cls-2{fill:#fff;}.cls-3{fill:#638b8c;}.cls-4{fill:#a53445;}</style></defs><title>maxelec2</title><path class="cls-1" d="M365.5,527.5v-55s2-8,6,0,15,28,15,28l16-29s3-6,6,0v56s-3,1-5,0v-45l-14,26s-3,3-5,0l-14-27v46S368.5,530.5,365.5,527.5Z" transform="translate(-365.5 -454.5)"/><path class="cls-1" d="M416.5,523.5l19-51s3-8,7,0l21,51s0,12-5,0l-6-13h-26l-5,15S416.5,531.5,416.5,523.5Z" transform="translate(-365.5 -454.5)"/><path class="cls-2" d="M430.5,504.5h19l-9-25s-1-3-2,0l-8,25" transform="translate(-365.5 -454.5)"/><path class="cls-1" d="M484.5,499.5l13-28s5-8,5,2l-15,33v2l7,16s0,5-4,2l-5-13h-1l-5,13s-4,4-4-1l6-16v-3l-14-34s0-5,4-2Z" transform="translate(-365.5 -454.5)"/><path class="cls-1" d="M514.5,468.5h32s2,2,0,5h-30v30h23s3,3,0,8h-23v11h29s4,3,0,7h-31s-2,0-3-3v-55A2.94,2.94,0,0,1,514.5,468.5Z" transform="translate(-365.5 -454.5)"/><path class="cls-1" d="M593.5,468.5h32s2,2,0,5h-30v30h23s3,3,0,8h-23v11h29s4,3,0,7h-31s-2,0-3-3v-55A2.94,2.94,0,0,1,593.5,468.5Z" transform="translate(-365.5 -454.5)"/><path class="cls-1" d="M557.5,471.5v51h21s6,4,0,7h-23s-4,0-4-5v-53S554.5,466.5,557.5,471.5Z" transform="translate(-365.5 -454.5)"/><path class="cls-1" d="M637.5,490.5v18s7,20,27,20h8v-5h-9a25,25,0,0,1-20-15l-1-2v-16s5-15,19-17h11v-5h-10S642.5,471.5,637.5,490.5Z" transform="translate(-365.5 -454.5)"/><path class="cls-3" d="M725.5,490.5v28s2,5,7,6h32s5-3,5-6v-28s-3-7-8-7h-28S726.5,483.5,725.5,490.5Z" transform="translate(-365.5 -454.5)"/><path class="cls-4" d="M717.5,501.5h-22v-27s1-16,18-20h31v21h-19s-7,2-8,8Z" transform="translate(-365.5 -454.5)"/><path class="cls-4" d="M777.15,506.47l22-.33.41,27s-.76,16-17.7,20.27l-31,.46-.32-21,19-.29s7-2.1,7.88-8.12Z" transform="translate(-365.5 -454.5)"/><path class="cls-4" d="M751.5,464.5v11h15s11,2,11,9v17h13v-25s-2-10-11-12Z" transform="translate(-365.5 -454.5)"/><path class="cls-4" d="M743.15,543.86l.21-11-15-.28s-11-2.2-10.83-9.2l.32-17-13-.24-.47,25s1.82,10,10.78,12.2Z" transform="translate(-365.5 -454.5)"/></svg>